# xmcd
#
# Track frame offsets: 
#        150
#        23013
#        43129
#        61825
#        82831
#        101839
#        126092
#        148201
#        174363
#        199251
#
# Disc length: 2952 seconds
#
# Revision: 0
# Processed by: cddbd v1.5.2PL0 Copyright (c) Steve Scherf et al.
# Submitted via: ExactAudioCopy v1.0b3
#
DISCID=850b860a
DTITLE=Che Linh, Giao Linh, Bang Chau - Khu Pho Ngay Xua
DYEAR=1991
DGENRE=
TTITLE0=Giao Linh - Khu pho ngay xua
TTITLE1=Che Linh - Hoa su nha nang
TTITLE2=Bang Chau - Nguoi xa ve thanh pho
TTITLE3=Che Linh - Tinh khuc doan truong
TTITLE4=Giao Linh - Truong cu tinh xua
TTITLE5=Bang Chau - Chuyen tinh nguoi dan ao
TTITLE6=Che Linh - Nhung ngay xua than ai
TTITLE7=Giao Linh - Lan va Diep 2
TTITLE8=Che Linh - Ngay vui qua mau
TTITLE9=Bang Chau - Ngay em hai muoi tuoi
EXTD=
EXTT0=
EXTT1=
EXTT2=
EXTT3=
EXTT4=
EXTT5=
EXTT6=
EXTT7=
EXTT8=
EXTT9=
PLAYORDER=
